<svg width="331" height="668" viewBox="0 0 331 668" fill="none" xmlns="http://www.w3.org/2000/svg">
<path d="M-46.8803 352.811L-46.8803 352.811L-46.8829 352.805C-48.3269 349.916 -48.4613 347.725 -47.9415 346.015C-47.4154 344.284 -46.1664 342.871 -44.5015 341.656C-42.8342 340.439 -40.8343 339.481 -38.9246 338.627C-38.6148 338.489 -38.3042 338.352 -37.9963 338.216C-36.4719 337.544 -35.0132 336.902 -34.0386 336.241L-34.0326 336.237L-34.0266 336.233C-30.9653 334.092 -27.4541 333.637 -23.7145 333.152C-23.6252 333.14 -23.5358 333.129 -23.4463 333.117C-19.6888 332.629 -15.6887 332.067 -12.3779 329.282L-12.3708 329.276L-12.3639 329.27C-9.97818 327.187 -6.55401 326.672 -3.03 327.827C-2.26854 328.201 -1.50104 328.596 -0.888683 329.271C-0.0331627 330.272 0.33406 331.667 0.296815 333.073C0.259427 334.483 -0.180635 335.729 -0.730635 336.411C-1.35875 337.08 -2.15433 337.533 -3.11242 338.018C-3.23231 338.079 -3.3555 338.14 -3.48126 338.203C-4.32815 338.626 -5.29147 339.107 -6.14877 339.79L-6.14879 339.79L-6.15478 339.795C-7.62978 340.988 -8.66948 342.756 -9.50387 344.63C-10.1611 346.106 -10.7271 347.736 -11.273 349.308C-11.4205 349.733 -11.5665 350.154 -11.7125 350.566C-12.4129 352.544 -13.1145 354.338 -13.9953 355.723C-14.8695 357.098 -15.8459 357.953 -17.0549 358.242L-17.0664 358.245L-17.0778 358.248C-18.746 358.688 -20.6906 357.999 -23.0205 356.932C-23.3294 356.791 -23.6456 356.643 -23.9662 356.493C-24.7928 356.106 -25.6486 355.706 -26.4828 355.37C-27.6498 354.9 -28.8736 354.513 -30.0964 354.426L-30.0981 354.426C-31.8933 354.302 -33.4811 354.817 -34.9116 355.388C-35.2974 355.542 -35.6665 355.698 -36.0259 355.849C-37.0522 356.281 -37.999 356.68 -39.0284 356.92L-39.0526 356.926L-39.0765 356.933C-41.5224 357.635 -44.9874 356.652 -46.8803 352.811Z" stroke="#BB6BD9" stroke-width="2" stroke-miterlimit="10"/>
<path d="M-2.98266 351.946L-2.98272 351.946L-2.98566 351.957C-3.29219 353.052 -3.58009 354.205 -3.87512 355.386C-4.37474 357.386 -4.89484 359.467 -5.5606 361.494C-6.61302 364.698 -7.93674 367.429 -9.8313 369.009C-11.5516 370.422 -13.5452 370.724 -15.8943 370.472C-17.8178 370.243 -19.8289 369.466 -22.01 368.426C-23.0032 367.952 -24.0126 367.434 -25.0563 366.898C-25.1553 366.847 -25.2546 366.796 -25.3542 366.745C-26.4958 366.159 -27.6754 365.558 -28.8856 364.994C-31.0345 363.941 -33.188 363.124 -35.3442 362.977C-37.801 362.688 -40.0513 363.17 -42.2207 363.871C-43.2076 364.189 -44.1964 364.56 -45.1797 364.928C-45.2771 364.965 -45.3746 365.001 -45.4719 365.038C-46.5599 365.445 -47.6494 365.847 -48.7808 366.194L-48.7808 366.194L-48.7899 366.197C-54.8248 368.115 -61.1932 364.614 -64.5745 357.434C-65.7162 355.009 -66.5243 352.643 -67.006 350.332C-67.6443 346.851 -67.9119 342.973 -67.3969 339.523C-66.8795 336.058 -65.597 333.165 -63.2688 331.444C-62.8621 331.145 -62.2747 330.956 -61.4761 330.87C-60.6806 330.784 -59.777 330.807 -58.7967 330.854C-58.634 330.862 -58.4687 330.87 -58.3017 330.879C-57.4922 330.92 -56.6423 330.963 -55.852 330.942C-54.9034 330.918 -53.9135 330.802 -53.0676 330.409L-53.0604 330.406L-53.0533 330.403C-51.4091 329.608 -49.8609 328.811 -48.379 328.047C-45.6664 326.65 -43.1762 325.368 -40.7264 324.427L-40.7167 324.424L-40.7072 324.42C-37.3334 323.044 -34.2737 321.146 -31.3315 319.321C-30.9936 319.111 -30.6573 318.902 -30.3222 318.696C-27.0377 316.669 -23.8608 314.811 -20.3568 313.767C-18.8564 313.323 -17.0624 313.546 -14.9867 313.861C-14.8721 313.878 -14.7566 313.896 -14.6402 313.914C-12.777 314.199 -10.6951 314.518 -8.81276 314.142C-8.0549 314.07 -7.4791 313.868 -6.83232 313.45L-6.81834 313.441L-6.80466 313.431C-2.61777 310.519 2.61976 310.474 7.68982 312.731L7.70332 312.737L7.71698 312.743C9.07221 313.299 10.3852 314.156 11.6324 315.647L11.7686 315.81L11.8435 315.846C13.4814 318.073 14.2604 321.065 14.3225 323.927C14.3853 326.821 13.7133 329.37 12.6866 330.741L12.6756 330.756L12.6651 330.771C11.7735 332.057 10.594 332.866 9.23909 333.621C8.91914 333.799 8.58078 333.978 8.23235 334.162C7.16473 334.727 6.00269 335.341 4.9865 336.139C4.20001 336.738 3.51836 337.32 2.88292 338.072C1.26982 339.92 0.155324 342.218 -0.727558 344.61C-1.42223 346.492 -1.99274 348.49 -2.54239 350.415C-2.68998 350.932 -2.83607 351.444 -2.98266 351.946Z" stroke="#BB6BD9" stroke-width="2" stroke-miterlimit="10"/>
<path d="M-5.22748 381.699L-5.23362 381.703L-5.2397 381.707C-8.13588 383.699 -11.3864 383.559 -14.8005 382.699C-17.4891 382.009 -20.1956 380.689 -23.0276 379.121C-24.0264 378.569 -25.0493 377.98 -26.0902 377.381C-27.9517 376.309 -29.8706 375.205 -31.8113 374.214C-34.661 372.694 -37.4624 371.817 -40.1151 371.387L-40.1281 371.385L-40.1412 371.383C-43.3748 370.947 -46.3648 371.515 -49.2852 372.411C-50.7422 372.858 -52.1996 373.392 -53.6607 373.929L-53.739 373.958C-55.1819 374.489 -56.6325 375.022 -58.1377 375.498C-68.212 378.64 -77.2549 372.57 -82.0746 362.155C-83.6836 358.384 -85.1121 354.645 -85.7444 350.98L-85.7443 350.98L-85.7467 350.967C-86.6945 345.859 -87.5065 339.652 -87.1326 334.024C-86.7564 328.361 -85.1981 323.537 -81.6647 320.866C-81.1107 320.468 -80.2041 320.288 -78.8854 320.347C-77.588 320.404 -76.0889 320.68 -74.4974 320.994C-74.33 321.027 -74.1615 321.06 -73.9922 321.094C-72.5854 321.373 -71.1257 321.663 -69.7944 321.798C-68.329 321.947 -66.8246 321.933 -65.6303 321.371L-65.6303 321.371L-65.6202 321.366C-63.4033 320.291 -61.2717 319.157 -59.2094 318.059C-58.1201 317.479 -57.0502 316.91 -55.9973 316.365C-52.9251 314.775 -49.9449 313.365 -46.8394 312.381C-41.5312 310.733 -37.1927 307.11 -33.0656 303.581C-32.9175 303.454 -32.7696 303.328 -32.622 303.202C-28.5957 299.756 -24.7445 296.461 -20.1969 294.757L-20.1918 294.755C-19.4157 294.459 -18.4287 294.455 -17.2124 294.705C-16.0022 294.954 -14.673 295.432 -13.2627 295.989C-12.8493 296.153 -12.4265 296.324 -11.9993 296.497C-11.0013 296.902 -9.97976 297.316 -9.00045 297.66C-7.60155 298.152 -6.17308 298.546 -4.84196 298.592C-3.9207 298.638 -2.93827 298.529 -2.0412 298.007L-2.0085 297.988L-1.97734 297.967C4.13885 293.76 11.6214 294.188 18.5044 297.445C20.5255 298.437 22.4692 299.729 24.3435 302.114L24.7819 302.671L24.8046 302.664C27.0711 305.96 28.2095 310.306 28.3822 314.441C28.5621 318.752 27.6855 322.607 26.1842 324.691L26.1765 324.702L26.1691 324.713C24.801 326.722 23.0355 327.931 21.0617 329.058C20.6596 329.288 20.2437 329.516 19.8195 329.749C18.2051 330.636 16.471 331.588 14.92 332.922L14.9108 332.929L14.9017 332.938C14.0147 333.738 13.0047 334.76 12.1865 335.903C8.41288 341.094 6.69045 348.26 5.17629 354.56C5.01074 355.249 4.84767 355.927 4.68466 356.592L4.68292 356.599C4.34822 358.009 4.03294 359.535 3.70452 361.124C3.07017 364.193 2.38675 367.5 1.41956 370.672C-0.0472081 375.481 -2.06965 379.595 -5.22748 381.699Z" stroke="#BB6BD9" stroke-width="2" stroke-miterlimit="10"/>
<path d="M12.4594 361.492L12.4593 361.493C12.0304 363.319 11.6271 365.331 11.203 367.447C10.4015 371.446 9.52582 375.815 8.26247 380.002C6.33279 386.396 3.60545 391.932 -0.767616 394.622C-4.63649 396.965 -9.31823 396.4 -13.77 394.923C-17.2052 393.76 -20.5917 391.9 -24.0604 389.84C-24.8913 389.347 -25.7283 388.841 -26.5712 388.332C-29.213 386.736 -31.9126 385.106 -34.6636 383.71C-38.3204 381.674 -41.7042 380.504 -45.0535 379.981L-45.0563 379.981C-51.8176 378.944 -57.9653 381.245 -64.5318 383.704C-65.5198 384.074 -66.5172 384.447 -67.5276 384.813L-67.5291 384.814C-74.4328 387.328 -80.8044 386.256 -86.2463 382.885C-91.7181 379.496 -96.276 373.759 -99.3954 366.942L-99.3953 366.942L-99.4 366.932C-101.716 362.015 -103.456 356.919 -104.391 351.881C-105.619 345.238 -106.976 336.723 -106.752 328.928C-106.527 321.076 -104.704 314.288 -99.9104 310.718L-99.9086 310.717C-99.1407 310.142 -97.8594 309.952 -96.0217 310.142C-94.2236 310.329 -92.138 310.85 -89.9544 311.425C-89.7285 311.484 -89.5014 311.544 -89.2737 311.604C-87.3353 312.117 -85.3465 312.643 -83.5496 312.934C-81.5812 313.253 -79.6043 313.336 -78.0971 312.621L-78.0909 312.618C-75.0094 311.129 -72.0896 309.527 -69.2634 307.976C-67.8985 307.227 -66.5554 306.49 -65.2265 305.784C-61.1177 303.599 -57.0846 301.672 -52.7261 300.417C-45.9178 298.507 -40.5815 293.453 -35.5417 288.431C-35.1949 288.085 -34.8495 287.74 -34.5051 287.396C-29.7688 282.66 -25.2213 278.112 -19.7351 275.802C-18.8187 275.431 -17.6096 275.493 -16.0742 275.969C-14.5503 276.44 -12.8596 277.268 -11.0709 278.227C-10.4465 278.562 -9.80509 278.916 -9.15833 279.273C-7.99166 279.916 -6.80745 280.569 -5.6732 281.139C-3.904 282.027 -2.11791 282.787 -0.472014 283.065L-0.426411 283.073L-0.380283 283.077L-0.343352 283.079C0.207901 283.121 0.848968 283.17 1.45359 283.124C2.07041 283.077 2.75978 282.926 3.35331 282.483C11.2672 277.037 20.8036 277.862 29.677 282.214C32.2631 283.482 34.9891 285.271 37.331 288.54C37.3834 288.638 37.4402 288.714 37.4839 288.767C37.534 288.828 37.5866 288.881 37.6185 288.913L37.6611 288.976C40.7632 293.541 42.3393 299.584 42.6184 305.283C42.8991 311.015 41.8597 316.18 39.9624 319.04L39.9575 319.048C38.1416 321.841 35.7636 323.458 33.151 324.944C32.6576 325.225 32.1513 325.502 31.6376 325.784C29.4737 326.972 27.1784 328.231 25.1619 330.075L25.1425 330.092L25.124 330.111L25.0932 330.142C23.925 331.329 22.6792 332.594 21.6766 334.118C18.9226 337.974 17.1438 342.626 15.7933 347.38C14.8744 350.614 14.1387 353.957 13.4359 357.15C13.1083 358.639 12.7879 360.095 12.4594 361.492Z" stroke="#BB6BD9" stroke-width="2" stroke-miterlimit="10"/>
<path d="M3.77852 407.359L3.77509 407.36C-1.31844 410.292 -7.29224 409.234 -12.7673 407.141C-16.9398 405.504 -20.9995 403.105 -25.1554 400.514C-25.8939 400.053 -26.6358 399.586 -27.3817 399.117C-30.8075 396.962 -34.3166 394.754 -37.9583 392.868C-42.3724 390.461 -46.3374 389.002 -50.3761 388.386L-50.3781 388.385C-58.8381 387.112 -66.5744 390.042 -75.1886 393.304C-75.8619 393.559 -76.5406 393.816 -77.2253 394.073L-77.2266 394.074C-86.017 397.39 -94.0538 396.008 -100.875 391.709C-107.729 387.39 -113.383 380.102 -117.239 371.605C-120.011 365.364 -122.33 359.029 -123.418 352.619L-123.419 352.613L-123.419 352.613C-124.88 344.34 -126.796 333.484 -126.749 323.513C-126.7 313.474 -124.659 304.722 -118.6 300.243C-117.592 299.51 -115.906 299.342 -113.547 299.687C-111.237 300.025 -108.558 300.808 -105.779 301.652C-105.523 301.73 -105.267 301.808 -105.01 301.886C-102.508 302.649 -99.9568 303.427 -97.6671 303.88C-95.1927 304.37 -92.7585 304.543 -90.9533 303.683C-87.0292 301.835 -83.332 299.767 -79.7273 297.751C-78.1558 296.872 -76.6019 296.003 -75.0544 295.167C-69.9265 292.394 -64.8035 289.936 -59.0937 288.455C-50.7736 286.362 -44.4826 279.898 -38.5556 273.373C-38.05 272.816 -37.5469 272.259 -37.0454 271.703C-31.5802 265.65 -26.2974 259.799 -19.7563 256.85L-19.7534 256.849C-18.6977 256.369 -17.2527 256.485 -15.3702 257.193C-13.513 257.89 -11.4342 259.085 -9.24137 260.459C-8.4308 260.967 -7.59872 261.503 -6.7615 262.043C-5.37622 262.936 -3.9768 263.838 -2.6372 264.635C-0.482343 265.918 1.66919 267.025 3.61953 267.493L3.64777 267.5L3.67634 267.505C5.21258 267.781 6.73148 267.957 8.14342 267.043L8.15459 267.036L8.16558 267.028C18.0384 260.258 29.7913 261.444 40.5032 266.932L40.511 266.936L40.5189 266.94C43.6724 268.486 47.0231 270.697 49.9945 274.861C50.0964 275.089 50.2222 275.247 50.3082 275.347C50.3116 275.351 50.3153 275.355 50.319 275.359L50.3901 275.464C54.3231 281.278 56.3421 288.861 56.7393 295.964C57.1383 303.101 55.8902 309.538 53.5198 313.12L53.5158 313.126C51.2274 316.64 48.2204 318.635 44.9606 320.484C44.4446 320.777 43.9196 321.067 43.3893 321.36C40.6107 322.896 37.6873 324.512 35.1639 326.988C33.5502 328.528 32.1141 330.184 30.9225 332.1C27.7029 336.916 25.5999 342.72 24.0069 348.64C22.8729 352.854 21.9841 357.184 21.1424 361.286C20.8031 362.939 20.4715 364.554 20.1346 366.11C19.6532 368.273 19.1993 370.689 18.7181 373.252C17.7779 378.258 16.7333 383.821 15.1745 389.131C12.817 397.162 9.39381 404.157 3.77852 407.359Z" stroke="#BB6BD9" stroke-width="2" stroke-miterlimit="10"/>
<path d="M27.7175 370.912L27.7165 370.917C27.2087 373.349 26.7279 376.07 26.2169 378.963C25.1399 385.059 23.9285 391.916 22.047 398.432C19.2706 408.047 15.1402 416.48 8.22079 420.294C2.12949 423.577 -5.09768 422.156 -11.7774 419.355C-16.6848 417.243 -21.4048 414.34 -26.1944 411.244C-27.0884 410.666 -27.9854 410.081 -28.8863 409.493C-32.7902 406.947 -36.7677 404.353 -40.8983 402.082C-45.9538 399.238 -50.6417 397.546 -55.2014 396.789L-55.2121 396.787C-65.6806 395.166 -75.1335 398.806 -86.035 403.004L-86.6319 403.234L-86.6326 403.234C-97.3113 407.353 -106.979 405.649 -115.139 400.427C-123.335 395.182 -130.036 386.364 -134.604 376.256C-137.961 368.776 -140.726 361.141 -142.113 353.38L-142.114 353.374C-142.159 353.129 -142.205 352.883 -142.251 352.635C-144.046 342.955 -146.412 330.196 -146.527 318.393C-146.645 306.217 -144.357 295.471 -137.044 290.004C-135.786 289.11 -133.69 288.972 -130.816 289.471C-127.994 289.961 -124.721 291.007 -121.347 292.121C-121.061 292.215 -120.774 292.31 -120.487 292.406C-117.422 293.42 -114.31 294.45 -111.53 295.066C-108.545 295.728 -105.659 295.986 -103.563 294.982L-103.559 294.98C-99.0525 292.796 -94.8079 290.376 -90.6682 288.015C-88.5822 286.825 -86.5229 285.651 -84.4702 284.53C-78.3057 281.163 -72.11 278.219 -65.1117 276.536L-65.1055 276.534C-55.4163 274.139 -48.2164 266.294 -41.414 258.288C-40.7934 257.558 -40.1761 256.826 -39.5603 256.096C-33.3331 248.715 -27.2672 241.526 -19.6394 237.851L-19.6327 237.848C-18.4207 237.253 -16.7303 237.422 -14.51 238.353C-12.3245 239.27 -9.8658 240.822 -7.28266 242.604C-6.21361 243.341 -5.10965 244.128 -4.00208 244.917C-2.48836 245.996 -0.967939 247.08 0.479236 248.049C2.9952 249.733 5.47704 251.204 7.69083 251.91C9.6709 252.619 11.4541 252.678 13.0022 251.733L13.0252 251.719L13.0475 251.704C24.7284 243.677 38.8827 245.313 51.3893 251.8C55.1919 253.781 59.1809 256.428 62.7881 261.515C62.8299 261.596 62.8718 261.659 62.8967 261.696C62.9429 261.764 62.9939 261.831 63.0266 261.874L63.0323 261.881C63.0535 261.909 63.0687 261.929 63.08 261.944L63.0951 261.988L63.1702 262.099C67.9048 269.084 70.3328 278.214 70.8369 286.749C71.3431 295.319 69.8987 303.069 67.122 307.351C64.3113 311.685 60.6469 314.105 56.7309 316.319C56.1193 316.664 55.4986 317.006 54.8732 317.351C51.5359 319.19 48.0619 321.104 45.0866 324.081C43.2125 325.885 41.5984 327.926 40.1916 330.047L40.1897 330.05C36.3462 335.887 33.9264 342.893 32.1197 350.015C30.9464 354.64 30.0176 359.381 29.1318 363.902C28.6583 366.318 28.1972 368.672 27.7175 370.912Z" stroke="#BB6BD9" stroke-width="2" stroke-miterlimit="10"/>
<path d="M80.9185 301.674L80.9225 301.667C84.1722 296.664 85.8127 287.606 85.1994 277.603C84.5883 267.637 81.7513 256.957 76.2828 248.773L76.2103 248.665L76.1726 248.555C76.1662 248.545 76.152 248.525 76.1241 248.489L76.1142 248.476C76.0515 248.394 75.9367 248.244 75.8409 248.03C71.6071 242.05 66.9942 238.976 62.5591 236.567C48.07 228.991 31.8555 226.948 18.3674 236.227C16.6428 237.455 14.3787 237.11 12.3043 236.338C9.78022 235.416 6.92953 233.597 4.02057 231.515C2.34167 230.313 0.58578 228.98 -1.16364 227.653C-2.43222 226.69 -3.6974 225.729 -4.92737 224.824C-7.90246 222.632 -10.7391 220.707 -13.2511 219.536C-15.8062 218.345 -17.7461 218.069 -19.1109 218.714C-23.8645 221.08 -28.0947 224.742 -32.1214 229.041C-35.349 232.487 -38.4082 236.3 -41.4939 240.145C-42.2659 241.107 -43.0396 242.072 -43.8179 243.033C-51.526 252.55 -59.7076 261.797 -70.8873 264.373L-70.8899 264.373C-79.1762 266.258 -86.4677 269.736 -93.6725 273.7C-95.9679 274.962 -98.2635 276.28 -100.581 277.61C-105.499 280.433 -110.516 283.313 -115.844 285.848C-117.06 286.431 -118.501 286.617 -120.035 286.568C-121.575 286.519 -123.277 286.229 -125.061 285.8C-128.278 285.025 -131.885 283.764 -135.452 282.517C-135.831 282.384 -136.21 282.252 -136.588 282.12C-140.555 280.738 -144.417 279.438 -147.736 278.822C-151.119 278.194 -153.608 278.344 -155.091 279.463L-155.097 279.467L-155.097 279.467C-159.385 282.649 -162.17 287.422 -163.847 293.238C-165.526 299.058 -166.076 305.864 -165.934 313.011C-165.67 326.354 -163.002 340.697 -160.951 351.722C-160.803 352.514 -160.659 353.289 -160.519 354.045L80.9185 301.674ZM80.9185 301.674C77.7048 306.704 73.4571 309.524 68.9054 312.116C68.2015 312.517 67.4878 312.913 66.7687 313.313C62.8788 315.474 58.8337 317.721 55.3498 321.215C53.2359 323.263 51.2865 325.742 49.686 328.257C45.3029 335.08 42.5087 343.213 40.4343 351.492C38.9616 357.37 37.8396 363.378 36.7771 369.067C36.3453 371.38 35.9233 373.639 35.4916 375.817C34.9373 378.544 34.4103 381.612 33.848 384.885C32.6247 392.006 31.2346 400.099 29.0345 407.771C25.8189 418.985 20.9795 428.855 12.8022 433.184M80.9185 301.674L12.8022 433.184M12.8022 433.184C5.48189 437.051 -3.08733 434.991 -10.8028 431.564M12.8022 433.184L-10.8028 431.564M-10.8028 431.564C-16.4081 429.051 -21.7562 425.603 -27.1584 421.952C-28.0785 421.33 -29.0005 420.702 -29.9256 420.072C-34.4095 417.018 -38.9636 413.916 -43.7027 411.242C-49.3952 407.964 -54.8103 406.037 -60.0436 405.19C-72.103 403.211 -83.0037 407.458 -95.8404 412.487C-108.433 417.341 -119.748 415.278 -129.253 409.114C-138.796 402.926 -146.544 392.579 -151.823 380.865C-155.575 372.231 -158.834 363.155 -160.519 354.045L-10.8028 431.564Z" stroke="#BB6BD9" stroke-width="2" stroke-miterlimit="10"/>
<path d="M17.1916 445.978L17.1817 445.983C8.91448 450.334 -1.09235 447.818 -9.82544 443.774C-16.1613 440.785 -22.1777 436.801 -28.2604 432.636C-28.9948 432.133 -29.7302 431.627 -30.4673 431.121C-35.8148 427.445 -41.2463 423.711 -46.9548 420.54C-53.405 416.893 -59.3961 414.679 -65.3098 413.739C-78.7667 411.433 -90.9644 416.124 -105.525 421.742L-105.534 421.746C-119.991 427.475 -132.974 425.102 -143.862 418.007C-154.79 410.885 -163.633 398.983 -169.622 385.66L-169.624 385.657C-174.15 375.692 -177.85 365.325 -179.691 354.827L-179.692 354.823C-179.967 353.281 -180.262 351.669 -180.567 349.996C-182.8 337.753 -185.618 322.303 -186.013 307.841C-186.238 299.626 -185.678 291.789 -183.81 285.078C-181.944 278.373 -178.791 272.856 -173.872 269.179L-173.869 269.176C-173.055 268.562 -171.942 268.212 -170.506 268.126C-169.069 268.04 -167.376 268.222 -165.476 268.611C-161.671 269.39 -157.224 270.956 -152.662 272.608C-152.3 272.739 -151.938 272.871 -151.575 273.002C-147.397 274.519 -143.168 276.053 -139.41 276.998C-137.364 277.512 -135.419 277.862 -133.666 277.934C-131.921 278.006 -130.296 277.805 -128.937 277.152C-122.788 274.224 -117.029 270.881 -111.387 267.605C-108.759 266.079 -106.156 264.568 -103.55 263.12C-95.3124 258.543 -86.9598 254.543 -77.3837 252.456L-77.3783 252.455C-64.7428 249.627 -55.6193 238.996 -47.0174 227.992C-46.1307 226.858 -45.2493 225.719 -44.3696 224.582C-40.9458 220.158 -37.5467 215.766 -33.9514 211.794C-29.439 206.809 -24.6779 202.558 -19.2915 199.817C-17.7192 199.032 -15.5059 199.377 -12.6141 200.805C-9.77175 202.208 -6.56449 204.51 -3.20353 207.123C-1.84682 208.177 -0.456519 209.289 0.937999 210.405C2.9515 212.016 4.97375 213.633 6.91628 215.095C10.2045 217.569 13.4248 219.723 16.2862 220.816C18.6848 221.861 21.0455 222.111 23.0251 220.829L23.0364 220.822L23.0474 220.814C38.4942 210.218 56.9746 212.766 73.2581 221.342C78.2979 224.05 83.7495 227.663 88.437 234.508L88.4917 234.588L88.5606 234.656C88.5921 234.687 88.6223 234.727 88.7141 234.869L88.7255 234.887C88.7945 234.994 88.905 235.165 89.062 235.336C95.3019 244.683 98.568 256.866 99.302 268.226C100.04 279.653 98.2041 290.02 94.4811 295.746L94.477 295.752L94.4731 295.758C90.8093 301.582 85.9423 304.813 80.752 307.764C79.9495 308.22 79.1365 308.671 78.3183 309.125C73.8832 311.583 69.2928 314.128 65.3622 318.119C62.9325 320.587 60.7422 323.304 58.9419 326.224C54.0162 334.036 50.8959 343.323 48.579 352.768C46.9877 359.254 45.7634 365.873 44.6004 372.16C44.0726 375.012 43.5575 377.797 43.0265 380.47C42.3768 383.689 41.7688 387.33 41.1193 391.22C39.7761 399.263 38.2556 408.368 35.8225 417C32.2107 429.815 26.6984 441.109 17.1916 445.978Z" stroke="#BB6BD9" stroke-width="2" stroke-miterlimit="10"/>
<path d="M-8.89968 455.84L-8.90581 455.837C-15.9449 452.445 -22.6047 447.995 -29.315 443.343C-30.258 442.689 -31.2022 442.031 -32.1486 441.371C-37.9153 437.353 -43.7615 433.28 -49.8968 429.753C-57.0383 425.524 -63.7562 423.077 -70.1954 421.997L-70.1997 421.997C-85.1422 419.559 -98.8154 424.591 -114.929 430.902L-114.932 430.903C-131.305 437.368 -145.936 434.636 -158.171 426.597C-170.447 418.532 -180.337 405.099 -187.037 390.17L-187.039 390.164C-192.151 378.957 -196.295 367.294 -198.435 355.448C-198.782 353.519 -199.156 351.49 -199.546 349.376C-202.073 335.691 -205.248 318.488 -205.776 302.364C-206.081 293.062 -205.502 284.178 -203.433 276.579C-201.366 268.985 -197.831 262.739 -192.271 258.603C-191.33 257.905 -190.047 257.52 -188.407 257.442C-186.767 257.363 -184.839 257.594 -182.684 258.06C-178.368 258.993 -173.328 260.823 -168.171 262.744C-167.778 262.891 -167.385 263.038 -166.991 263.185C-162.25 264.954 -157.461 266.741 -153.214 267.849C-150.91 268.45 -148.727 268.862 -146.766 268.958C-144.812 269.053 -143.005 268.837 -141.504 268.115C-134.759 264.888 -128.41 261.192 -122.168 257.557C-119.119 255.781 -116.094 254.02 -113.062 252.336C-103.779 247.181 -94.3141 242.68 -83.4446 240.39L-83.4431 240.39C-69.3982 237.409 -59.3196 225.431 -49.8235 212.939C-48.7839 211.572 -47.7511 210.197 -46.72 208.825C-43.0037 203.88 -39.3101 198.965 -35.4045 194.508C-30.4211 188.822 -25.1554 183.96 -19.1832 180.822L-19.1826 180.821C-17.4773 179.924 -15.0338 180.336 -11.8169 181.998C-8.6613 183.629 -5.08205 186.296 -1.32973 189.318C0.208148 190.556 1.78417 191.862 3.36461 193.171C5.59296 195.017 7.8301 196.871 9.98149 198.553C13.6688 201.436 17.2659 203.949 20.4418 205.257L20.4523 205.261C23.0596 206.3 25.7491 206.884 27.889 205.34C45.2928 193.439 65.98 196.355 84.0905 206.064C89.7654 209.202 95.8472 213.244 101.168 220.999L101.222 221.079L101.291 221.146C101.322 221.177 101.352 221.218 101.444 221.359L101.455 221.377C101.524 221.483 101.634 221.653 101.79 221.824C108.786 232.439 112.413 246.147 113.224 258.907C114.039 271.73 111.998 283.379 107.89 289.882C103.727 296.359 98.226 299.97 92.3925 303.282C91.5409 303.765 90.6801 304.243 89.8146 304.724C84.7889 307.515 79.6081 310.391 75.1882 314.922C72.4987 317.654 70.2687 320.714 68.1592 324.03L68.1536 324.039C62.6816 332.843 59.2461 343.325 56.716 353.968C54.9866 361.243 53.6684 368.653 52.4193 375.675C51.8439 378.909 51.2831 382.061 50.7036 385.08C50.033 388.526 49.3991 392.415 48.7215 396.573C47.2271 405.744 45.5199 416.219 42.7363 426.123C38.6863 440.533 32.4645 453.272 21.7153 458.728C12.1492 463.532 0.87823 460.635 -8.89968 455.84Z" stroke="#BB6BD9" stroke-width="2" stroke-miterlimit="10"/>
<path d="M-7.93216 468.047L-7.93458 468.046C-15.7021 464.177 -23.0289 459.19 -30.3699 454.049C-31.1781 453.483 -31.9865 452.915 -32.7957 452.347C-39.3168 447.765 -45.8878 443.149 -52.7612 439.242C-60.6648 434.641 -67.9606 431.907 -75.0803 430.736C-91.4188 427.972 -106.432 433.3 -124.233 440.349C-142.597 447.574 -158.9 444.529 -172.492 435.572C-186.125 426.587 -197.061 411.625 -204.495 395.018C-210.052 382.512 -214.64 369.551 -217.079 356.358C-217.518 353.921 -218 351.335 -218.505 348.627C-221.302 333.627 -224.792 314.909 -225.47 297.324C-225.87 286.95 -225.287 277.032 -223.03 268.551C-220.774 260.074 -216.866 253.102 -210.664 248.507L-210.66 248.503C-209.595 247.705 -208.148 247.273 -206.311 247.19C-204.473 247.107 -202.316 247.375 -199.91 247.908C-195.091 248.974 -189.464 251.055 -183.717 253.236C-183.261 253.409 -182.804 253.583 -182.348 253.756C-177.079 255.76 -171.767 257.779 -167.06 259.041C-164.499 259.727 -162.078 260.2 -159.908 260.318C-157.747 260.436 -155.758 260.207 -154.117 259.415C-146.549 255.795 -139.475 251.64 -132.523 247.558C-129.172 245.59 -125.85 243.639 -122.514 241.772C-112.216 236.009 -101.688 230.985 -89.4537 228.468L-89.4509 228.468C-73.9561 225.234 -62.9372 211.88 -52.5466 197.9C-51.4033 196.362 -50.2673 194.815 -49.1329 193.27C-45.074 187.744 -41.0362 182.247 -36.7586 177.262C-31.2918 170.892 -25.4968 165.44 -18.8935 161.927C-16.9961 160.927 -14.2842 161.43 -10.7415 163.328C-7.2638 165.192 -3.3187 168.22 0.812428 171.645C2.53015 173.068 4.29007 174.569 6.05423 176.074C8.48442 178.147 10.9227 180.227 13.2701 182.121C17.332 185.399 21.2852 188.26 24.7703 189.783C27.6971 191.094 30.6414 191.546 32.9076 189.971C51.9833 176.853 74.8862 180.131 94.9839 190.935C101.226 194.351 107.991 198.963 113.948 207.634L114.002 207.713L114.068 207.778C114.07 207.78 114.082 207.794 114.106 207.83C114.138 207.879 114.172 207.936 114.223 208.025L114.24 208.053C114.313 208.179 114.441 208.401 114.617 208.599C122.392 220.314 126.452 235.522 127.382 249.69C128.316 263.922 126.079 276.881 121.496 284.106C116.883 291.379 110.761 295.402 104.288 299.074C103.337 299.613 102.376 300.146 101.411 300.681C95.8426 303.768 90.121 306.94 85.2575 311.963L85.249 311.972L85.2408 311.981C82.3907 315.072 79.7806 318.41 77.4644 322.141L77.4619 322.145C71.4459 331.938 67.6834 343.575 64.9104 355.385C63.0576 363.276 61.6346 371.304 60.283 378.93C59.6149 382.698 58.9644 386.369 58.2879 389.876L58.2878 389.876C57.5605 393.664 56.8752 397.955 56.141 402.551C54.5193 412.704 52.6596 424.346 49.5851 435.349C45.1149 451.348 38.1844 465.529 26.1006 471.525L26.0957 471.527C15.5783 476.818 2.86543 473.461 -7.93216 468.047Z" stroke="#BB6BD9" stroke-width="2" stroke-miterlimit="10"/>
<path d="M-6.96561 480.253L-6.95916 480.256C4.88867 486.423 18.8623 490.16 30.678 484.417C44.0241 477.906 51.6516 462.248 56.5665 444.609C59.9104 432.609 61.9468 419.918 63.7237 408.844C64.5567 403.653 65.3326 398.817 66.1594 394.575C66.871 390.787 67.5547 386.82 68.2572 382.743C69.7086 374.321 71.2406 365.431 73.2658 356.688C76.2758 343.693 80.4015 330.886 87.0601 320.149C89.5579 316.044 92.3628 312.304 95.6729 309.04C100.995 303.512 107.266 300.017 113.387 296.606C114.431 296.024 115.47 295.445 116.499 294.858C123.608 290.809 130.352 286.372 135.441 278.373C140.498 270.425 142.929 256.156 141.888 240.494C140.85 224.879 136.373 208.102 127.847 195.184C127.671 194.95 127.553 194.744 127.459 194.583C127.361 194.416 127.292 194.297 127.188 194.16L127.173 194.141L127.159 194.121C120.569 184.54 113.175 179.5 106.358 175.803C84.4692 163.999 59.3013 160.213 38.2657 174.646L38.2546 174.654L38.2433 174.661C35.6869 176.316 32.5596 175.763 29.2558 174.266C25.4688 172.563 21.1499 169.363 16.6974 165.69C14.1314 163.574 11.4664 161.252 8.80817 158.937C6.86452 157.244 4.92449 155.554 3.02935 153.949C-1.50489 150.11 -5.83942 146.709 -9.65366 144.612C-13.5398 142.476 -16.5205 141.897 -18.5961 143.027L-18.6011 143.03C-25.8369 146.919 -32.159 152.971 -38.1065 160.037C-42.7404 165.543 -47.1075 171.614 -51.4941 177.712C-52.743 179.449 -53.9935 181.187 -55.2522 182.915C-66.5312 198.402 -78.4913 213.134 -95.4627 216.546L-95.6598 215.566L-95.4627 216.546C-108.99 219.265 -120.617 224.825 -131.975 231.191C-135.558 233.2 -139.125 235.295 -142.719 237.407C-150.47 241.961 -158.346 246.588 -166.782 250.573M-6.96561 480.253L-167.213 249.671M-6.96561 480.253C-15.459 475.91 -23.4156 470.375 -31.4053 464.691C-32.0872 464.206 -32.7693 463.72 -33.4521 463.233C-40.7506 458.03 -48.1166 452.78 -55.9145 448.35M-6.96561 480.253L-56.41 449.218M-166.782 250.573C-166.783 250.574 -166.784 250.574 -166.786 250.575L-167.213 249.671M-166.782 250.573C-166.781 250.573 -166.779 250.572 -166.778 250.571L-167.213 249.671M-166.782 250.573C-168.563 251.432 -170.731 251.676 -173.099 251.535C-175.477 251.393 -178.137 250.859 -180.956 250.086C-186.151 248.662 -192.022 246.389 -197.853 244.133C-198.341 243.944 -198.83 243.755 -199.317 243.566C-205.658 241.116 -211.879 238.771 -217.208 237.551C-219.87 236.941 -222.262 236.623 -224.303 236.699C-226.344 236.774 -227.961 237.238 -229.154 238.122M-167.213 249.671C-173.246 252.584 -185.329 247.907 -197.503 243.196C-210.646 238.109 -223.895 232.981 -229.751 237.319M-229.154 238.122C-229.154 238.121 -229.154 238.121 -229.153 238.121L-229.751 237.319M-229.154 238.122C-235.988 243.213 -240.272 250.935 -242.728 260.305C-245.184 269.68 -245.789 280.635 -245.315 292.079C-244.519 311.29 -240.693 331.704 -237.623 348.084C-237.033 351.229 -236.472 354.225 -235.965 357.035L-235.965 357.036C-233.322 371.759 -228.15 385.961 -222.054 399.574L-222.054 399.574C-213.91 417.788 -201.88 434.304 -186.88 444.228C-171.923 454.124 -153.986 457.491 -133.829 449.414L-133.828 449.413C-114.349 441.63 -98.0357 435.855 -80.2443 439.093M-229.154 238.122C-229.155 238.122 -229.155 238.122 -229.155 238.122L-229.751 237.319M-229.751 237.319L-80.2443 439.093M-80.2443 439.093C-80.2462 439.093 -80.2483 439.093 -80.2503 439.092L-80.4193 440.078M-80.2443 439.093L-222.967 399.983C-206.581 436.629 -174.43 466.761 -133.457 450.342C-113.953 442.548 -97.8932 436.896 -80.4193 440.078M-80.2443 439.093C-80.2429 439.094 -80.2415 439.094 -80.2402 439.094L-80.4193 440.078M-80.2443 439.093C-72.602 440.405 -64.5883 443.372 -55.9145 448.35M-80.4193 440.078C-72.9105 441.366 -65.0045 444.285 -56.41 449.218M-56.41 449.218L-55.9161 448.349C-55.9156 448.349 -55.915 448.349 -55.9145 448.35M-56.41 449.218L-55.9122 448.351C-55.913 448.351 -55.9137 448.35 -55.9145 448.35" stroke="#BB6BD9" stroke-width="2" stroke-miterlimit="10"/>
<path d="M-5.99502 492.461L-5.99837 492.459C-15.2183 487.641 -23.8416 481.57 -32.4831 475.327C-33.3671 474.688 -34.2514 474.048 -35.1364 473.407C-42.8862 467.793 -50.7007 462.133 -58.9586 457.273L-58.9633 457.27C-68.267 451.862 -76.8653 448.609 -85.1898 447.206C-104.609 443.888 -122.066 450.051 -143.273 458.426L-143.276 458.427C-165.422 467.266 -185.045 463.55 -201.367 452.717C-217.732 441.854 -230.808 423.808 -239.662 403.989L-239.663 403.987C-246.341 389.138 -251.814 373.589 -254.757 357.515C-255.332 354.34 -255.973 350.945 -256.647 347.375C-260.013 329.543 -264.203 307.352 -265.127 286.46C-265.682 273.929 -265.057 261.929 -262.4 251.665C-259.744 241.406 -255.078 232.954 -247.602 227.402C-246.279 226.434 -244.491 225.934 -242.248 225.864C-240.005 225.794 -237.38 226.156 -234.465 226.837C-228.63 228.201 -221.821 230.797 -214.889 233.506C-214.333 233.723 -213.777 233.942 -213.22 234.16C-206.866 236.648 -200.479 239.15 -194.827 240.734C-191.749 241.596 -188.85 242.198 -186.262 242.373C-183.682 242.547 -181.331 242.303 -179.404 241.396L-179.397 241.392C-170.405 237.077 -161.996 232.105 -153.716 227.208C-149.638 224.797 -145.592 222.405 -141.523 220.118C-129.145 213.163 -116.441 207.114 -101.619 204.192L-101.617 204.192C-83.2714 200.553 -70.3592 184.484 -58.1792 167.526C-56.7865 165.587 -55.4029 163.635 -54.021 161.686C-49.3197 155.054 -44.6366 148.448 -39.6701 142.449C-33.2496 134.694 -26.421 128.039 -18.5997 123.751C-16.3303 122.516 -13.0762 123.197 -8.85972 125.583C-4.71868 127.926 -0.0121877 131.707 4.90705 135.967C6.97449 137.757 9.08971 139.642 11.2084 141.529C14.0825 144.089 16.9629 146.655 19.739 149C24.5698 153.08 29.2478 156.635 33.3449 158.554C36.8869 160.289 40.382 160.915 43.0535 159.031C66.0475 143.29 93.4248 147.444 117.143 160.381C124.57 164.495 132.566 169.942 139.77 180.367C139.98 180.892 140.318 181.336 140.565 181.659L140.579 181.677C149.905 195.766 154.791 214.088 155.936 231.133C157.085 248.225 154.458 263.806 148.997 272.455L148.997 272.456C143.457 281.25 136.127 286.087 128.399 290.488C127.263 291.135 126.116 291.774 124.964 292.415C118.318 296.115 111.509 299.905 105.691 305.939C102.047 309.64 99.056 313.764 96.3279 318.096L96.3238 318.103L96.3199 318.109C89.1418 329.907 84.7011 343.906 81.4539 358.087C79.3125 367.439 77.6782 376.933 76.1268 385.944C75.3294 390.576 74.5539 395.081 73.7428 399.374C72.8931 403.847 72.09 408.932 71.2278 414.391C69.3017 426.587 67.0806 440.65 63.386 453.925C58.0328 473.159 49.6953 490.264 35.1039 497.361L35.1029 497.362C22.3396 503.588 6.87876 499.25 -5.99502 492.461Z" stroke="#BB6BD9" stroke-width="2" stroke-miterlimit="10"/>
<path d="M-5.0316 504.665L-5.03233 504.665C-14.9803 499.37 -24.2583 492.798 -33.5662 486.079C-34.2732 485.568 -34.9804 485.057 -35.6881 484.545C-44.2805 478.333 -52.9433 472.07 -62.1594 466.716L-62.1637 466.714C-72.2417 460.927 -81.3638 457.538 -90.3983 455.901L-90.4041 455.9C-111.221 452.254 -130.02 458.714 -152.913 467.826L-152.918 467.828C-176.93 477.544 -198.187 473.506 -215.855 461.729C-233.567 449.922 -247.702 430.309 -257.265 408.884L-257.267 408.881C-264.583 392.637 -270.64 375.846 -273.737 358.387L-273.737 358.387C-274.418 354.549 -275.193 350.41 -276.012 346.041C-279.581 326.982 -283.975 303.524 -285.013 281.39C-285.651 267.792 -285.017 254.759 -282.172 243.605C-279.328 232.456 -274.294 223.257 -266.185 217.208C-264.757 216.146 -262.818 215.604 -260.386 215.532C-257.954 215.461 -255.106 215.862 -251.943 216.612C-245.611 218.112 -238.21 220.957 -230.678 223.923C-230.083 224.157 -229.488 224.392 -228.892 224.628C-221.977 227.356 -215.027 230.099 -208.882 231.838C-205.542 232.784 -202.4 233.445 -199.6 233.641C-196.809 233.837 -194.276 233.577 -192.209 232.601L-192.207 232.6C-182.349 227.92 -173.14 222.476 -164.06 217.108C-159.738 214.553 -155.446 212.016 -151.128 209.587C-137.69 202.028 -123.886 195.443 -107.77 192.319C-97.8408 190.406 -89.4244 185.079 -81.8693 177.949C-74.3218 170.825 -67.5864 161.856 -61.0304 152.593C-59.5246 150.465 -58.0288 148.323 -56.5345 146.183C-51.5034 138.978 -46.4888 131.796 -41.164 125.275C-34.2635 116.824 -26.9084 109.569 -18.4551 104.905C-17.249 104.247 -15.781 104.101 -14.0128 104.463C-12.2335 104.827 -10.2117 105.696 -7.98426 106.985C-3.52716 109.564 1.54986 113.707 6.85699 118.366C9.09264 120.329 11.3791 122.393 13.6693 124.46C16.7682 127.257 19.8739 130.061 22.8699 132.628C28.0915 137.104 33.1397 141.006 37.5495 143.138L37.5585 143.142L37.5676 143.146C41.415 144.912 44.9556 145.688 47.9171 143.719L47.9277 143.712C72.8812 126.654 102.381 131.363 128.038 145.253C136.23 149.743 144.906 155.76 152.694 166.953C152.904 167.478 153.242 167.921 153.488 168.244L153.501 168.26C163.584 183.619 168.865 203.454 170.105 221.89C171.349 240.375 168.517 257.234 162.602 266.681C156.66 276.173 148.71 281.423 140.328 286.208C139.107 286.906 137.875 287.594 136.638 288.285C129.419 292.316 122.033 296.44 115.757 302.982L115.749 302.991C111.93 307.065 108.704 311.423 105.778 316.156L105.777 316.158C97.9547 328.901 93.1501 344.07 89.6656 359.438C87.3509 369.646 85.6068 380.005 83.9548 389.816C83.1235 394.754 82.3154 399.553 81.4697 404.125C80.564 408.937 79.7098 414.419 78.7917 420.311C76.7381 433.491 74.3647 448.724 70.3785 463.101C64.6051 483.924 55.5585 502.474 39.6297 510.111L39.6246 510.113C25.619 516.924 8.85788 512.072 -5.0316 504.665Z" stroke="#BB6BD9" stroke-width="2" stroke-miterlimit="10"/>
<path d="M-4.06335 516.872L-4.0672 516.87C-14.7421 511.1 -24.6858 503.992 -34.6912 496.765C-35.1017 496.468 -35.5123 496.172 -35.9231 495.875C-45.5055 488.95 -55.1735 481.964 -65.5493 476.067C-76.315 469.702 -86.3039 466.132 -95.8566 464.356L-95.8633 464.355C-118.079 460.382 -138.175 467.286 -162.745 477.133L-162.747 477.133C-188.604 487.561 -211.51 483.164 -230.544 470.447C-249.622 457.702 -264.837 436.571 -275.111 413.542C-282.871 396.001 -289.372 377.913 -292.767 359.107L-292.768 359.106C-293.495 355.105 -294.318 350.797 -295.187 346.249C-299.124 325.64 -303.998 300.123 -305.19 276.057C-305.917 261.376 -305.268 247.299 -302.225 235.257C-299.182 223.219 -293.766 213.289 -285.014 206.78C-283.457 205.633 -281.347 205.058 -278.712 204.995C-276.077 204.932 -272.994 205.383 -269.575 206.21C-262.734 207.864 -254.739 210.973 -246.614 214.208C-245.987 214.458 -245.359 214.708 -244.731 214.959C-237.255 217.941 -229.745 220.936 -223.112 222.839C-219.514 223.871 -216.134 224.593 -213.126 224.813C-210.127 225.031 -207.414 224.756 -205.208 223.712L-205.206 223.711C-194.601 218.667 -184.723 212.793 -174.979 206.998C-170.341 204.24 -165.733 201.501 -161.093 198.877C-146.658 190.717 -131.79 183.607 -114.307 180.257C-103.655 178.218 -94.6305 172.491 -86.5331 164.808C-78.4435 157.132 -71.2314 147.457 -64.2153 137.454C-62.5628 135.098 -60.9218 132.725 -59.2824 130.354C-53.9416 122.631 -48.6179 114.932 -42.9698 107.932C-35.5939 98.7916 -27.732 90.9326 -18.6926 85.8686C-17.3738 85.1337 -15.7764 84.9709 -13.8642 85.3636C-11.9407 85.7586 -9.75924 86.7055 -7.36068 88.11C-2.5615 90.9203 2.89975 95.4369 8.60068 100.514C11.0236 102.672 13.5007 104.941 15.9804 107.213C19.2863 110.241 22.5969 113.274 25.7902 116.053C31.3914 120.927 36.7971 125.171 41.5096 127.482C45.6487 129.512 49.455 130.164 52.5455 128.163L52.5568 128.156L52.5679 128.148C79.194 109.877 111.05 114.905 138.542 129.933L138.544 129.935C147.531 134.816 156.86 141.281 165.154 153.492L165.169 153.515L165.185 153.537C165.315 153.707 165.46 153.915 165.622 154.147L165.629 154.158C165.775 154.368 165.935 154.597 166.087 154.799C176.972 171.329 182.663 192.711 184.01 212.578C185.36 232.493 182.334 250.664 176.015 260.811L176.015 260.812C169.622 271.099 161.052 276.761 152.031 281.906C150.71 282.659 149.378 283.402 148.041 284.147C140.28 288.474 132.354 292.894 125.635 299.927L125.629 299.933C121.571 304.251 118.009 309.045 114.892 314.169L114.889 314.174C106.622 327.951 101.539 344.298 97.8357 360.844C95.4249 371.614 93.5868 382.533 91.8419 392.899C90.9103 398.433 90.0054 403.809 89.054 408.92L89.0537 408.922C88.1236 413.963 87.2415 419.694 86.2935 425.853C84.0924 440.153 81.5358 456.761 77.1982 472.416C70.9865 494.835 61.2301 514.832 44.0563 523.055C29.0418 530.215 10.88 525.034 -4.06335 516.872Z" stroke="#BB6BD9" stroke-width="2" stroke-miterlimit="10"/>
<path d="M-3.10267 529.075L-3.10111 529.076C12.8587 537.856 32.3215 543.552 48.5791 535.806L48.5814 535.805C67.0933 527.042 77.559 505.6 84.1847 481.575C88.8326 464.721 91.538 446.825 93.8616 431.455C94.8473 424.934 95.7644 418.868 96.7318 413.528L96.7321 413.527C97.7073 408.193 98.6366 402.591 99.5932 396.823C101.452 385.614 103.415 373.784 106.017 362.103C109.964 344.389 115.41 326.874 124.295 312.082M-3.10267 529.075L125.152 312.597M-3.10267 529.075C-14.5017 522.831 -25.0749 515.175 -35.6776 507.371C-36.377 506.856 -37.0765 506.341 -37.7765 505.825C-47.6708 498.535 -57.6397 491.189 -68.31 484.89L-68.3138 484.888C-79.8479 478.145 -90.4176 474.288 -100.652 472.42L-100.656 472.419C-124.41 468.17 -145.99 475.42 -172.101 485.954L-172.102 485.955C-199.924 497.214 -224.49 492.54 -244.875 478.922C-265.306 465.274 -281.567 442.614 -292.574 417.906M-3.10267 529.075L-100.832 473.404M124.295 312.082L125.152 312.597M124.295 312.082C124.295 312.082 124.295 312.082 124.295 312.082L125.152 312.597M124.295 312.082C127.606 306.564 131.407 301.529 135.79 296.785L135.796 296.778C143.001 289.122 151.54 284.357 159.912 279.685C161.276 278.924 162.635 278.165 163.984 277.397C173.647 271.892 182.851 265.852 189.718 254.84L189.718 254.84C196.509 243.97 199.696 224.502 198.202 203.169C196.711 181.874 190.571 158.942 178.942 141.211L178.939 141.206C178.779 140.958 178.63 140.744 178.471 140.516C178.316 140.293 178.151 140.056 177.974 139.782M125.152 312.597C128.427 307.14 132.186 302.159 136.524 297.463C143.615 289.929 152.006 285.245 160.382 280.569C171.494 274.365 182.579 268.176 190.566 255.37C204.479 233.102 203.273 176.485 179.778 140.662C179.608 140.399 179.45 140.172 179.292 139.945C179.134 139.718 178.976 139.491 178.806 139.228M177.974 139.782C177.975 139.785 177.977 139.788 177.979 139.79L178.806 139.228M177.974 139.782C169.049 126.666 159.094 119.776 149.533 114.613L149.525 114.609C120.202 98.4436 86.133 93.0477 57.5465 112.63C54.3331 114.863 50.1007 113.978 45.8117 111.874L45.8029 111.87C40.7792 109.345 35.0063 104.757 29.0175 99.4902C25.6036 96.4882 22.067 93.2173 18.5356 89.9514C15.885 87.4999 13.2374 85.0513 10.647 82.7212C4.55822 77.2443 -1.27336 72.3667 -6.38833 69.32C-8.94508 67.7971 -11.2705 66.764 -13.3195 66.3248C-15.3562 65.8882 -17.0551 66.0503 -18.4518 66.8296M177.974 139.782C177.971 139.778 177.969 139.775 177.966 139.771L178.806 139.228M178.806 139.228C169.762 125.934 159.662 118.946 150.008 113.733C120.512 97.4725 86.0027 91.9224 56.9779 111.807C54.2525 113.703 50.4982 113.059 46.252 110.977C38.5605 107.111 28.9187 98.1927 19.2352 89.2362C4.25235 75.378 -10.8301 61.4277 -18.9416 65.9577M-100.832 473.404C-124.274 469.21 -145.61 476.345 -171.727 486.882C-228.033 509.669 -271.377 467.942 -293.488 418.313M-100.832 473.404C-90.7231 475.248 -80.2626 479.061 -68.8184 485.751L-100.832 473.404ZM-293.488 418.313L-292.574 417.906M-293.488 418.313C-301.804 399.63 -308.829 380.023 -312.543 359.767M-293.488 418.313L-312.543 359.767M-292.574 417.906C-300.871 399.266 -307.865 379.739 -311.559 359.587M-292.574 417.906L-311.559 359.587M-311.559 359.587C-311.559 359.587 -311.559 359.587 -311.559 359.586L-312.543 359.767M-311.559 359.587C-312.355 355.214 -313.259 350.493 -314.215 345.502C-318.429 323.502 -323.647 296.268 -324.959 270.566C-325.763 254.806 -325.094 239.688 -321.849 226.759C-318.605 213.833 -312.806 203.172 -303.41 196.202L-303.409 196.201C-301.727 194.953 -299.451 194.333 -296.616 194.269C-293.782 194.205 -290.468 194.699 -286.796 195.6C-279.447 197.402 -270.859 200.779 -262.136 204.292C-261.448 204.569 -260.758 204.848 -260.068 205.126C-252.057 208.359 -244.017 211.603 -236.918 213.671C-233.06 214.795 -229.44 215.584 -226.223 215.83C-223.014 216.075 -220.12 215.788 -217.775 214.675L-217.773 214.675C-206.491 209.299 -195.964 203.043 -185.571 196.867C-180.532 193.873 -175.525 190.897 -170.478 188.05C-154.979 179.305 -138.997 171.694 -120.219 168.141L-120.218 168.141C-108.88 165.989 -99.2831 159.874 -90.6751 151.649C-82.075 143.432 -74.4131 133.06 -66.9551 122.324C-65.1909 119.784 -63.4387 117.225 -61.6878 114.668C-56.0173 106.386 -50.3605 98.1242 -44.3539 90.6064C-36.4989 80.7752 -28.1128 72.3062 -18.4518 66.8296M-312.543 359.767C-313.335 355.41 -314.238 350.7 -315.192 345.718C-324.576 296.736 -339.015 221.368 -304.005 195.399C-296.082 189.517 -277.813 196.888 -259.705 204.194C-242.969 210.947 -226.37 217.644 -218.203 213.772C-206.962 208.415 -196.504 202.201 -186.134 196.038C-165.667 183.875 -145.541 171.915 -120.405 167.158C-95.6187 162.454 -79.1195 138.357 -62.5277 114.124C-49.4305 94.9954 -36.2757 75.7825 -18.9416 65.9577M-18.9416 65.9577L-18.454 66.8308C-18.4533 66.8304 -18.4526 66.83 -18.4518 66.8296M-18.9416 65.9577L-18.4485 66.8277C-18.4496 66.8283 -18.4507 66.8289 -18.4518 66.8296" stroke="#BB6BD9" stroke-width="2" stroke-miterlimit="10"/>
<path d="M104.365 418.47L104.365 418.466C105.445 412.599 106.468 406.421 107.522 400.057C109.473 388.278 111.53 375.863 114.242 363.61C118.426 344.711 124.2 326.039 133.655 310.328C133.655 310.328 133.655 310.327 133.656 310.326L134.512 310.842C137.976 304.999 141.925 299.633 146.55 294.838L104.365 418.47ZM104.365 418.47C103.353 424.08 102.391 430.455 101.357 437.312C98.8821 453.713 95.9918 472.869 91.0106 490.907C83.9405 516.51 72.7654 539.398 53.0091 548.749C35.7446 556.842 15.0277 550.771 -2.13902 541.28C-14.2648 534.56 -25.5035 526.368 -36.7678 518.104L-37.632 517.47C-48.5914 509.429 -59.5976 501.353 -71.4143 494.62C-83.5728 487.453 -94.7217 483.31 -105.634 481.351L-105.637 481.35C-130.735 476.92 -153.656 484.467 -181.449 495.737C-211.187 507.732 -237.402 502.698 -259.134 488.136C-280.912 473.543 -298.219 449.353 -309.936 423.039L-309.937 423.038C-318.819 403.154 -326.255 382.334 -330.104 360.791L-330.104 360.791C-331.002 355.785 -332.038 350.353 -333.135 344.597C-337.574 321.303 -343.023 292.713 -344.453 265.703C-345.344 248.868 -344.667 232.714 -341.235 218.892C-337.803 205.074 -331.638 193.665 -321.608 186.198L-321.605 186.196C-319.817 184.854 -317.393 184.192 -314.373 184.128C-311.355 184.064 -307.823 184.6 -303.91 185.571C-296.078 187.514 -286.916 191.147 -277.612 194.923C-276.887 195.217 -276.162 195.511 -275.437 195.806C-266.879 199.286 -258.289 202.778 -250.709 205.006C-246.595 206.216 -242.738 207.066 -239.312 207.335C-235.896 207.603 -232.823 207.3 -230.338 206.119L-230.337 206.119C-218.308 200.379 -207.094 193.687 -196.021 187.079C-190.658 183.879 -185.329 180.699 -179.955 177.655C-163.439 168.301 -146.393 160.167 -126.32 156.411C-114.247 154.17 -104.048 147.667 -94.9103 138.889C-85.7806 130.118 -77.6614 119.027 -69.7585 107.536C-67.8831 104.809 -66.0205 102.061 -64.159 99.3139C-58.1567 90.4574 -52.1667 81.6191 -45.8 73.5779C-37.4643 63.0497 -28.5503 53.9794 -18.2553 48.1264L-18.2546 48.1261C-16.7642 47.2773 -14.9556 47.1015 -12.7931 47.5707C-10.6184 48.0425 -8.15163 49.1546 -5.44104 50.7928C-0.0185994 54.0698 6.16589 59.3179 12.6279 65.2099C15.3353 67.6785 18.1001 70.2686 20.8701 72.8634C24.6657 76.419 28.471 79.9837 32.1513 83.2574C38.5226 88.9246 44.6723 93.8623 50.0436 96.591C54.6694 99.1007 59.02 99.914 62.5091 97.6048L62.5155 97.6006L62.5218 97.5962C93.0675 76.6996 129.257 82.6517 160.517 99.7676C170.713 105.361 181.299 112.683 190.857 126.713L190.872 126.735L190.888 126.756C191.151 127.101 191.469 127.59 191.817 128.128L191.819 128.131C204.179 147.059 210.728 171.539 212.326 194.264C213.927 217.027 210.546 237.805 203.28 249.398L203.278 249.402C195.96 261.209 186.171 267.65 175.887 273.508C174.432 274.336 172.965 275.154 171.493 275.975C162.6 280.933 153.527 285.992 145.827 294.147L104.365 418.47Z" stroke="#BB6BD9" stroke-width="2" stroke-miterlimit="10"/>
<path d="M-327.545 427.451L-328.457 427.86L-327.545 427.451C-337.013 406.324 -344.941 384.065 -349.138 361.033C-350.105 355.636 -351.227 349.76 -352.417 343.523C-357.119 318.897 -362.895 288.64 -364.446 260.028C-365.417 242.105 -364.724 224.896 -361.094 210.176C-357.465 195.46 -350.921 183.311 -340.247 175.383L-340.244 175.381C-338.346 173.961 -335.765 173.271 -332.551 173.219C-329.338 173.167 -325.578 173.755 -321.413 174.804C-313.077 176.904 -303.317 180.799 -293.41 184.841C-292.678 185.139 -291.946 185.439 -291.214 185.738C-282.059 189.479 -272.87 193.233 -264.768 195.628C-260.391 196.922 -256.29 197.832 -252.653 198.122C-249.025 198.411 -245.771 198.093 -243.148 196.844L-243.147 196.844C-230.439 190.772 -218.576 183.699 -206.853 176.709C-201.091 173.273 -195.362 169.857 -189.583 166.59C-172.002 156.651 -153.843 148.015 -132.474 144.057C-119.679 141.69 -108.875 134.779 -99.1989 125.437C-89.5311 116.103 -80.9399 104.292 -72.5801 92.0524C-70.5841 89.1301 -68.602 86.1843 -66.6211 83.2405C-60.2857 73.8255 -53.9637 64.4303 -47.2458 55.8846C-38.4328 44.6736 -29.0067 35.0176 -18.1145 28.8004L-18.1136 28.7999C-16.1884 27.6983 -13.7471 27.6694 -10.7505 28.659C-7.75207 29.6493 -4.33567 31.6178 -0.609163 34.2926C6.77197 39.5908 15.1332 47.4831 23.5497 55.4274L23.7899 55.6542C32.2527 63.6423 40.7649 71.661 48.2564 76.9399C52.0006 79.5782 55.5562 81.581 58.7758 82.5378C62.0066 83.4979 65.0307 83.4384 67.5377 81.7459L67.5402 81.7442C99.9524 59.7252 138.357 66.0457 171.451 84.2994L171.455 84.3017C182.224 90.1763 193.49 98.0686 203.683 113.01L203.683 113.012C217.364 133.005 224.611 159.287 226.45 183.776C228.292 208.303 224.695 230.801 216.931 243.287C209.138 255.82 198.726 262.674 187.808 268.909C186.274 269.785 184.729 270.65 183.178 271.517C173.728 276.802 164.1 282.187 155.94 290.853C140.202 307.522 131.163 330.065 125.091 353.644C120.807 370.282 117.981 387.529 115.338 403.652C114.239 410.362 113.171 416.877 112.044 423.072L112.043 423.074C110.978 429.01 109.964 435.769 108.873 443.047C106.262 460.459 103.207 480.84 97.9247 500.03C90.4281 527.266 78.555 551.635 57.5316 561.5C39.0233 570.18 17.0047 563.592 -1.17842 553.483L-1.17882 553.483C-14.0041 546.359 -25.8957 537.668 -37.8055 528.864C-38.3502 528.461 -38.8949 528.058 -39.4398 527.655C-50.7921 519.259 -62.2007 510.82 -74.418 503.682L-74.4184 503.682C-95.7454 491.233 -114.264 487.157 -132.802 488.395C-151.295 489.63 -169.739 496.151 -190.898 504.751C-222.527 517.553 -250.39 512.161 -273.494 496.642C-296.645 481.092 -315.045 455.347 -327.545 427.451Z" stroke="#BB6BD9" stroke-width="2" stroke-miterlimit="10"/>
</svg>
