<svg width="405" height="254" viewBox="0 0 405 254" fill="none" xmlns="http://www.w3.org/2000/svg">
<rect width="405" height="254" rx="8" fill="#3B2565"/>
<path d="M111.385 167.54C112.055 167.72 112.565 168.03 112.915 168.47C113.265 168.9 113.44 169.44 113.44 170.09C113.44 171.01 113.1 171.725 112.42 172.235C111.74 172.745 110.755 173 109.465 173H104.485V162.5H109.18C110.36 162.5 111.28 162.735 111.94 163.205C112.6 163.675 112.93 164.34 112.93 165.2C112.93 165.75 112.795 166.225 112.525 166.625C112.265 167.025 111.885 167.33 111.385 167.54ZM106.405 166.985H109.015C109.645 166.985 110.125 166.86 110.455 166.61C110.785 166.36 110.95 165.99 110.95 165.5C110.95 165.01 110.785 164.64 110.455 164.39C110.125 164.13 109.645 164 109.015 164H106.405V166.985ZM109.405 171.5C110.785 171.5 111.475 170.98 111.475 169.94C111.475 168.92 110.785 168.41 109.405 168.41H106.405V171.5H109.405ZM119.351 167.63C120.371 167.63 121.151 167.86 121.691 168.32C122.231 168.78 122.501 169.43 122.501 170.27C122.501 171.15 122.201 171.83 121.601 172.31C121.011 172.79 120.171 173.025 119.081 173.015L115.451 173V164.99H117.326V167.615L119.351 167.63ZM123.536 164.99H125.411V173H123.536V164.99ZM118.916 171.635C119.466 171.645 119.886 171.53 120.176 171.29C120.466 171.05 120.611 170.7 120.611 170.24C120.611 169.79 120.471 169.46 120.191 169.25C119.911 169.04 119.486 168.93 118.916 168.92L117.326 168.905V171.62L118.916 171.635ZM132.267 165.38C133.027 165.38 133.697 165.545 134.277 165.875C134.857 166.195 135.307 166.645 135.627 167.225C135.957 167.805 136.122 168.47 136.122 169.22C136.122 169.99 135.942 170.675 135.582 171.275C135.222 171.865 134.717 172.325 134.067 172.655C133.417 172.985 132.677 173.15 131.847 173.15C130.457 173.15 129.382 172.69 128.622 171.77C127.862 170.85 127.482 169.525 127.482 167.795C127.482 166.185 127.827 164.91 128.517 163.97C129.207 163.03 130.262 162.41 131.682 162.11L135.402 161.315L135.672 162.995L132.297 163.685C131.327 163.885 130.602 164.225 130.122 164.705C129.642 165.185 129.362 165.86 129.282 166.73C129.642 166.3 130.077 165.97 130.587 165.74C131.097 165.5 131.657 165.38 132.267 165.38ZM131.892 171.635C132.582 171.635 133.137 171.415 133.557 170.975C133.987 170.525 134.202 169.955 134.202 169.265C134.202 168.575 133.987 168.02 133.557 167.6C133.137 167.18 132.582 166.97 131.892 166.97C131.192 166.97 130.627 167.18 130.197 167.6C129.767 168.02 129.552 168.575 129.552 169.265C129.552 169.965 129.767 170.535 130.197 170.975C130.637 171.415 131.202 171.635 131.892 171.635ZM145.437 169.04C145.437 169.17 145.427 169.355 145.407 169.595H139.122C139.232 170.185 139.517 170.655 139.977 171.005C140.447 171.345 141.027 171.515 141.717 171.515C142.597 171.515 143.322 171.225 143.892 170.645L144.897 171.8C144.537 172.23 144.082 172.555 143.532 172.775C142.982 172.995 142.362 173.105 141.672 173.105C140.792 173.105 140.017 172.93 139.347 172.58C138.677 172.23 138.157 171.745 137.787 171.125C137.427 170.495 137.247 169.785 137.247 168.995C137.247 168.215 137.422 167.515 137.772 166.895C138.132 166.265 138.627 165.775 139.257 165.425C139.887 165.075 140.597 164.9 141.387 164.9C142.167 164.9 142.862 165.075 143.472 165.425C144.092 165.765 144.572 166.25 144.912 166.88C145.262 167.5 145.437 168.22 145.437 169.04ZM141.387 166.4C140.787 166.4 140.277 166.58 139.857 166.94C139.447 167.29 139.197 167.76 139.107 168.35H143.652C143.572 167.77 143.327 167.3 142.917 166.94C142.507 166.58 141.997 166.4 141.387 166.4ZM151.928 164.9C152.708 164.9 153.403 165.07 154.013 165.41C154.633 165.75 155.118 166.23 155.468 166.85C155.818 167.47 155.993 168.185 155.993 168.995C155.993 169.805 155.818 170.525 155.468 171.155C155.118 171.775 154.633 172.255 154.013 172.595C153.403 172.935 152.708 173.105 151.928 173.105C150.848 173.105 149.993 172.745 149.363 172.025V175.91H147.488V164.99H149.273V166.04C149.583 165.66 149.963 165.375 150.413 165.185C150.873 164.995 151.378 164.9 151.928 164.9ZM151.718 171.5C152.408 171.5 152.973 171.27 153.413 170.81C153.863 170.35 154.088 169.745 154.088 168.995C154.088 168.245 153.863 167.64 153.413 167.18C152.973 166.72 152.408 166.49 151.718 166.49C151.268 166.49 150.863 166.595 150.503 166.805C150.143 167.005 149.858 167.295 149.648 167.675C149.438 168.055 149.333 168.495 149.333 168.995C149.333 169.495 149.438 169.935 149.648 170.315C149.858 170.695 150.143 170.99 150.503 171.2C150.863 171.4 151.268 171.5 151.718 171.5ZM157.859 164.99H159.734V170.27L164.159 164.99H165.869V173H163.994V167.72L159.584 173H157.859V164.99ZM174.736 166.58H171.931V173H170.056V166.58H167.236V164.99H174.736V166.58ZM183.244 169.04C183.244 169.17 183.234 169.355 183.214 169.595H176.929C177.039 170.185 177.324 170.655 177.784 171.005C178.254 171.345 178.834 171.515 179.524 171.515C180.404 171.515 181.129 171.225 181.699 170.645L182.704 171.8C182.344 172.23 181.889 172.555 181.339 172.775C180.789 172.995 180.169 173.105 179.479 173.105C178.599 173.105 177.824 172.93 177.154 172.58C176.484 172.23 175.964 171.745 175.594 171.125C175.234 170.495 175.054 169.785 175.054 168.995C175.054 168.215 175.229 167.515 175.579 166.895C175.939 166.265 176.434 165.775 177.064 165.425C177.694 165.075 178.404 164.9 179.194 164.9C179.974 164.9 180.669 165.075 181.279 165.425C181.899 165.765 182.379 166.25 182.719 166.88C183.069 167.5 183.244 168.22 183.244 169.04ZM179.194 166.4C178.594 166.4 178.084 166.58 177.664 166.94C177.254 167.29 177.004 167.76 176.914 168.35H181.459C181.379 167.77 181.134 167.3 180.724 166.94C180.314 166.58 179.804 166.4 179.194 166.4ZM200.031 168.98C200.031 170.22 199.616 171.195 198.786 171.905C197.966 172.615 196.791 173.02 195.261 173.12V175.91H193.491V173.135C191.961 173.035 190.786 172.63 189.966 171.92C189.146 171.21 188.736 170.23 188.736 168.98C188.736 167.74 189.146 166.775 189.966 166.085C190.786 165.385 191.961 164.985 193.491 164.885V161.87H195.261V164.885C196.791 164.985 197.966 165.385 198.786 166.085C199.616 166.785 200.031 167.75 200.031 168.98ZM190.581 168.98C190.581 169.75 190.816 170.35 191.286 170.78C191.766 171.21 192.501 171.47 193.491 171.56V166.475C192.501 166.555 191.766 166.805 191.286 167.225C190.816 167.645 190.581 168.23 190.581 168.98ZM195.261 171.56C197.221 171.38 198.201 170.52 198.201 168.98C198.201 168.22 197.956 167.635 197.466 167.225C196.986 166.805 196.251 166.555 195.261 166.475V171.56ZM205.418 173.105C204.608 173.105 203.878 172.93 203.228 172.58C202.578 172.23 202.068 171.745 201.698 171.125C201.338 170.495 201.158 169.785 201.158 168.995C201.158 168.205 201.338 167.5 201.698 166.88C202.068 166.26 202.578 165.775 203.228 165.425C203.878 165.075 204.608 164.9 205.418 164.9C206.238 164.9 206.973 165.075 207.623 165.425C208.273 165.775 208.778 166.26 209.138 166.88C209.508 167.5 209.693 168.205 209.693 168.995C209.693 169.785 209.508 170.495 209.138 171.125C208.778 171.745 208.273 172.23 207.623 172.58C206.973 172.93 206.238 173.105 205.418 173.105ZM205.418 171.5C206.108 171.5 206.678 171.27 207.128 170.81C207.578 170.35 207.803 169.745 207.803 168.995C207.803 168.245 207.578 167.64 207.128 167.18C206.678 166.72 206.108 166.49 205.418 166.49C204.728 166.49 204.158 166.72 203.708 167.18C203.268 167.64 203.048 168.245 203.048 168.995C203.048 169.745 203.268 170.35 203.708 170.81C204.158 171.27 204.728 171.5 205.418 171.5ZM217.597 166.58H214.792V173H212.917V166.58H210.097V164.99H217.597V166.58ZM222.176 173.105C221.366 173.105 220.636 172.93 219.986 172.58C219.336 172.23 218.826 171.745 218.456 171.125C218.096 170.495 217.916 169.785 217.916 168.995C217.916 168.205 218.096 167.5 218.456 166.88C218.826 166.26 219.336 165.775 219.986 165.425C220.636 165.075 221.366 164.9 222.176 164.9C222.996 164.9 223.731 165.075 224.381 165.425C225.031 165.775 225.536 166.26 225.896 166.88C226.266 167.5 226.451 168.205 226.451 168.995C226.451 169.785 226.266 170.495 225.896 171.125C225.536 171.745 225.031 172.23 224.381 172.58C223.731 172.93 222.996 173.105 222.176 173.105ZM222.176 171.5C222.866 171.5 223.436 171.27 223.886 170.81C224.336 170.35 224.561 169.745 224.561 168.995C224.561 168.245 224.336 167.64 223.886 167.18C223.436 166.72 222.866 166.49 222.176 166.49C221.486 166.49 220.916 166.72 220.466 167.18C220.026 167.64 219.806 168.245 219.806 168.995C219.806 169.745 220.026 170.35 220.466 170.81C220.916 171.27 221.486 171.5 222.176 171.5ZM234.453 166.58H230.178V173H228.303V164.99H234.453V166.58ZM240.258 164.9C241.038 164.9 241.733 165.07 242.343 165.41C242.963 165.75 243.448 166.23 243.798 166.85C244.148 167.47 244.323 168.185 244.323 168.995C244.323 169.805 244.148 170.525 243.798 171.155C243.448 171.775 242.963 172.255 242.343 172.595C241.733 172.935 241.038 173.105 240.258 173.105C239.178 173.105 238.323 172.745 237.693 172.025V175.91H235.818V164.99H237.603V166.04C237.913 165.66 238.293 165.375 238.743 165.185C239.203 164.995 239.708 164.9 240.258 164.9ZM240.048 171.5C240.738 171.5 241.303 171.27 241.743 170.81C242.193 170.35 242.418 169.745 242.418 168.995C242.418 168.245 242.193 167.64 241.743 167.18C241.303 166.72 240.738 166.49 240.048 166.49C239.598 166.49 239.193 166.595 238.833 166.805C238.473 167.005 238.188 167.295 237.978 167.675C237.768 168.055 237.663 168.495 237.663 168.995C237.663 169.495 237.768 169.935 237.978 170.315C238.188 170.695 238.473 170.99 238.833 171.2C239.193 171.4 239.598 171.5 240.048 171.5ZM249.071 164.9C250.251 164.9 251.151 165.185 251.771 165.755C252.401 166.315 252.716 167.165 252.716 168.305V173H250.946V172.025C250.716 172.375 250.386 172.645 249.956 172.835C249.536 173.015 249.026 173.105 248.426 173.105C247.826 173.105 247.301 173.005 246.851 172.805C246.401 172.595 246.051 172.31 245.801 171.95C245.561 171.58 245.441 171.165 245.441 170.705C245.441 169.985 245.706 169.41 246.236 168.98C246.776 168.54 247.621 168.32 248.771 168.32H250.841V168.2C250.841 167.64 250.671 167.21 250.331 166.91C250.001 166.61 249.506 166.46 248.846 166.46C248.396 166.46 247.951 166.53 247.511 166.67C247.081 166.81 246.716 167.005 246.416 167.255L245.681 165.89C246.101 165.57 246.606 165.325 247.196 165.155C247.786 164.985 248.411 164.9 249.071 164.9ZM248.816 171.74C249.286 171.74 249.701 171.635 250.061 171.425C250.431 171.205 250.691 170.895 250.841 170.495V169.565H248.906C247.826 169.565 247.286 169.92 247.286 170.63C247.286 170.97 247.421 171.24 247.691 171.44C247.961 171.64 248.336 171.74 248.816 171.74ZM265.626 168.98C265.626 170.22 265.211 171.195 264.381 171.905C263.561 172.615 262.386 173.02 260.856 173.12V175.91H259.086V173.135C257.556 173.035 256.381 172.63 255.561 171.92C254.741 171.21 254.331 170.23 254.331 168.98C254.331 167.74 254.741 166.775 255.561 166.085C256.381 165.385 257.556 164.985 259.086 164.885V161.87H260.856V164.885C262.386 164.985 263.561 165.385 264.381 166.085C265.211 166.785 265.626 167.75 265.626 168.98ZM256.176 168.98C256.176 169.75 256.411 170.35 256.881 170.78C257.361 171.21 258.096 171.47 259.086 171.56V166.475C258.096 166.555 257.361 166.805 256.881 167.225C256.411 167.645 256.176 168.23 256.176 168.98ZM260.856 171.56C262.816 171.38 263.796 170.52 263.796 168.98C263.796 168.22 263.551 167.635 263.061 167.225C262.581 166.805 261.846 166.555 260.856 166.475V171.56ZM267.444 164.99H269.319V170.27L273.744 164.99H275.454V173H273.579V167.72L269.169 173H267.444V164.99ZM285.296 164.9C286.096 164.9 286.811 165.075 287.441 165.425C288.071 165.765 288.566 166.25 288.926 166.88C289.286 167.5 289.466 168.205 289.466 168.995C289.466 169.785 289.286 170.495 288.926 171.125C288.566 171.745 288.071 172.23 287.441 172.58C286.811 172.93 286.096 173.105 285.296 173.105C284.596 173.105 283.956 172.97 283.376 172.7C282.796 172.42 282.316 172.03 281.936 171.53C281.556 171.02 281.311 170.44 281.201 169.79H279.851V173H277.976V164.99H279.851V168.095H281.231C281.351 167.465 281.601 166.91 281.981 166.43C282.361 165.94 282.836 165.565 283.406 165.305C283.976 165.035 284.606 164.9 285.296 164.9ZM285.296 171.515C285.736 171.515 286.131 171.415 286.481 171.215C286.831 171.005 287.106 170.71 287.306 170.33C287.506 169.94 287.606 169.495 287.606 168.995C287.606 168.235 287.386 167.63 286.946 167.18C286.516 166.72 285.966 166.49 285.296 166.49C284.626 166.49 284.076 166.72 283.646 167.18C283.216 167.63 283.001 168.235 283.001 168.995C283.001 169.755 283.216 170.365 283.646 170.825C284.086 171.285 284.636 171.515 285.296 171.515ZM291.729 173.105C291.389 173.105 291.099 172.99 290.859 172.76C290.619 172.52 290.499 172.22 290.499 171.86C290.499 171.49 290.614 171.19 290.844 170.96C291.084 170.73 291.379 170.615 291.729 170.615C292.079 170.615 292.369 170.73 292.599 170.96C292.839 171.19 292.959 171.49 292.959 171.86C292.959 172.22 292.839 172.52 292.599 172.76C292.359 172.99 292.069 173.105 291.729 173.105ZM295.392 173.105C295.052 173.105 294.762 172.99 294.522 172.76C294.282 172.52 294.162 172.22 294.162 171.86C294.162 171.49 294.277 171.19 294.507 170.96C294.747 170.73 295.042 170.615 295.392 170.615C295.742 170.615 296.032 170.73 296.262 170.96C296.502 171.19 296.622 171.49 296.622 171.86C296.622 172.22 296.502 172.52 296.262 172.76C296.022 172.99 295.732 173.105 295.392 173.105ZM299.054 173.105C298.714 173.105 298.424 172.99 298.184 172.76C297.944 172.52 297.824 172.22 297.824 171.86C297.824 171.49 297.939 171.19 298.169 170.96C298.409 170.73 298.704 170.615 299.054 170.615C299.404 170.615 299.694 170.73 299.924 170.96C300.164 171.19 300.284 171.49 300.284 171.86C300.284 172.22 300.164 172.52 299.924 172.76C299.684 172.99 299.394 173.105 299.054 173.105Z" fill="white"/>
<path d="M158 61C158 58.0826 159.159 55.2847 161.222 53.2218C163.285 51.1589 166.083 50 169 50H235C237.917 50 240.715 51.1589 242.778 53.2218C244.841 55.2847 246 58.0826 246 61V116C246 118.917 244.841 121.715 242.778 123.778C240.715 125.841 237.917 127 235 127H169C166.083 127 163.285 125.841 161.222 123.778C159.159 121.715 158 118.917 158 116V61V61ZM163.5 110.5V116C163.5 117.459 164.079 118.858 165.111 119.889C166.142 120.921 167.541 121.5 169 121.5H235C236.459 121.5 237.858 120.921 238.889 119.889C239.921 118.858 240.5 117.459 240.5 116V96.75L219.727 86.0415C219.211 85.7831 218.627 85.6935 218.057 85.7853C217.488 85.8771 216.961 86.1457 216.553 86.553L196.148 106.958L181.518 97.212C180.99 96.8603 180.356 96.7022 179.725 96.7643C179.093 96.8265 178.503 97.1051 178.053 97.553L163.5 110.5ZM191 74.75C191 72.562 190.131 70.4635 188.584 68.9164C187.036 67.3692 184.938 66.5 182.75 66.5C180.562 66.5 178.464 67.3692 176.916 68.9164C175.369 70.4635 174.5 72.562 174.5 74.75C174.5 76.938 175.369 79.0365 176.916 80.5836C178.464 82.1308 180.562 83 182.75 83C184.938 83 187.036 82.1308 188.584 80.5836C190.131 79.0365 191 76.938 191 74.75Z" fill="#7F41FF"/>
</svg>
