<svg width="24" height="24" viewBox="0 0 24 24" fill="none" xmlns="http://www.w3.org/2000/svg">
<path d="M3.20007 5.40015H20.8001L19.0621 21.042C19.0025 21.5804 18.7464 22.0778 18.343 22.4391C17.9395 22.8003 17.4169 23.0001 16.8753 23H7.12487C6.58327 23.0001 6.06069 22.8003 5.6572 22.4391C5.2537 22.0778 4.99765 21.5804 4.93807 21.042L3.20007 5.40015Z" stroke="#321F57" stroke-width="1.33333" stroke-linecap="round" stroke-linejoin="round"/>
<path d="M6.8794 2.26169C7.05733 1.88436 7.33888 1.56539 7.69121 1.342C8.04354 1.11861 8.45212 0.999995 8.8693 1H15.1305C15.5479 0.999786 15.9567 1.1183 16.3092 1.34171C16.6618 1.56511 16.9435 1.88419 17.1215 2.26169L18.5999 5.39997H5.3999L6.8794 2.26169Z" stroke="#321F57" stroke-width="1.33333" stroke-linecap="round" stroke-linejoin="round"/>
<path d="M1 5.40015H23" stroke="#321F57" stroke-width="1.33333" stroke-linecap="round" stroke-linejoin="round"/>
<path d="M9.80005 10.8999V16.3999" stroke="#321F57" stroke-width="1.33333" stroke-linecap="round" stroke-linejoin="round"/>
<path d="M14.2 10.8999V16.3999" stroke="#321F57" stroke-width="1.33333" stroke-linecap="round" stroke-linejoin="round"/>
</svg>
