<svg width="20" height="21" viewBox="0 0 20 21" fill="none" xmlns="http://www.w3.org/2000/svg">
<path d="M18.8168 0.950092C18.6008 0.727218 18.3444 0.550414 18.0621 0.429786C17.7799 0.309158 17.4774 0.24707 17.1718 0.24707C16.8663 0.24707 16.5638 0.309158 16.2815 0.429786C15.9993 0.550414 15.7428 0.727218 15.5269 0.950092L9.13485 7.54178C8.6046 8.08891 8.22847 8.77434 8.04666 9.52482L7.59349 11.388C7.55561 11.545 7.5578 11.7095 7.59983 11.8654C7.64187 12.0214 7.72232 12.1634 7.83338 12.2778C7.94443 12.3922 8.08229 12.4749 8.23356 12.5181C8.38482 12.5612 8.54434 12.5633 8.69659 12.524L10.5003 12.0582C11.2281 11.8707 11.8927 11.4828 12.4233 10.936L18.8183 4.34278C19.0344 4.12007 19.2058 3.85563 19.3228 3.56456C19.4398 3.2735 19.5 2.96151 19.5 2.64644C19.5 2.33136 19.4398 2.01938 19.3228 1.72831C19.2058 1.43724 19.0344 1.1728 18.8183 0.950092H18.8168ZM12.6066 1.78789L11.116 3.32513H2.98135C2.586 3.32513 2.20684 3.48709 1.92728 3.77538C1.64773 4.06366 1.49067 4.45467 1.49067 4.86237V14.0812C1.49067 14.4889 1.64773 14.8799 1.92728 15.1682C2.20684 15.4565 2.586 15.6184 2.98135 15.6184H14.9067C15.3021 15.6184 15.6813 15.4565 15.9608 15.1682C16.2404 14.8799 16.3974 14.4889 16.3974 14.0812V9.01292L17.8881 7.47568V14.0812C17.8881 14.8966 17.574 15.6786 17.0149 16.2552C16.4558 16.8318 15.6974 17.1557 14.9067 17.1557H11.9299V18.7083H14.1659C14.3636 18.7083 14.5531 18.7893 14.6929 18.9334C14.8327 19.0776 14.9112 19.2731 14.9112 19.4769C14.9112 19.6808 14.8327 19.8763 14.6929 20.0204C14.5531 20.1646 14.3636 20.2455 14.1659 20.2455L3.73563 20.2471C3.53795 20.2471 3.34838 20.1661 3.2086 20.0219C3.06882 19.8778 2.99029 19.6823 2.99029 19.4785C2.99029 19.2746 3.06882 19.0791 3.2086 18.935C3.34838 18.7908 3.53795 18.7098 3.73563 18.7098H5.97015V17.1572H2.98135C2.19065 17.1572 1.43233 16.8333 0.873217 16.2567C0.314105 15.6801 0 14.8981 0 14.0827V4.86237C0 4.04697 0.314105 3.26496 0.873217 2.68838C1.43233 2.11181 2.19065 1.78789 2.98135 1.78789H12.6066ZM10.4392 18.7098V17.1572H7.46083V18.7098H10.4392ZM8.6951 12.524L8.51622 11.78L8.6951 12.524Z" fill="#7F41FF"/>
</svg>
